<svg width="80" height="80" viewBox="0 0 80 80" fill="none" xmlns="http://www.w3.org/2000/svg">
<path d="M64 0H16C7.16344 0 0 7.16344 0 16V64C0 72.8366 7.16344 80 16 80H64C72.8366 80 80 72.8366 80 64V16C80 7.16344 72.8366 0 64 0Z" fill="#9FFFF8"/>
<path d="M23.896 62.5C25.3483 62.5 26.7412 61.9231 27.7681 60.8961C28.7951 59.8692 29.372 58.4763 29.372 57.024C29.372 55.5717 28.7951 54.1788 27.7681 53.1519C26.7412 52.1249 25.3483 51.548 23.896 51.548C22.4437 51.548 21.0509 52.1249 20.0239 53.1519C18.997 54.1788 18.42 55.5717 18.42 57.024C18.42 58.4763 18.997 59.8692 20.0239 60.8961C21.0509 61.9231 22.4437 62.5 23.896 62.5ZM45.66 45.928C48.8704 45.2358 51.7465 43.464 53.8087 40.908C55.8709 38.3519 56.9944 35.1662 56.992 31.882C56.9883 28.0815 55.4769 24.4378 52.7896 21.7504C50.1023 19.0631 46.4585 17.5517 42.658 17.548H32.42L42.66 28.168C43.669 28.1712 44.6357 28.5734 45.3492 29.2868C46.0626 30.0003 46.4649 30.967 46.468 31.976C46.4654 32.9857 46.0631 33.9532 45.3492 34.6672C44.6352 35.3811 43.6677 35.7834 42.658 35.786H35.944L18.374 17.5V32.214L47.326 62.5H61.612L45.658 45.928H45.66Z" fill="#312A91"/>
</svg>
